{"title":"The Conjuring 2013 READNFO VODRiP XViD UNiQUE","uid":8775502,"size":1499230208,"categoryP":"video","categoryS":"movies","magnet":"?xt=urn:btih:cd90723414495d27cff2a0352b4a2ee412d4e7b2&amp;dn=The+Conjuring+2013+READNFO+VODRiP+XViD+UNiQUE&amp;tr=udp%3A%2F%2Ftracker.openbittorrent.com%3A80&amp;tr=udp%3A%2F%2Fopen.demonii.com%3A1337&amp;tr=udp%3A%2F%2Ftracker.coppersurfer.tk%3A6969&amp;tr=udp%3A%2F%2Fexodus.desync.com%3A6969","seeders":2,"leechers":0,"uploader":"TeX","files":3,"time":1375547170,"description":" &lt;a href=&quot;http://p2pdl.com/&quot; rel=&quot;nofollow&quot; target=&quot;_NEW&quot;&gt;http://p2pdl.com/&lt;/a&gt;\n &lt;a href=&quot;\nhttp://truestaris.com/files/2013/07/the_conjuring.jpg&quot; rel=&quot;nofollow&quot; target=&quot;_NEW&quot;&gt;\nhttp://truestaris.com/files/2013/07/the_conjuring.jpg&lt;/a&gt;\n\nFormat : AVI\nFormat/Info : Audio Video Interleave\nFile size : 1.39 GiB\nDuration : 1h 47mn\nOverall bit rate : 1 852 Kbps\nWriting application : VirtualDubMod 1.5.10.2 (build 2540/release)\nWriting library : VirtualDubMod build 2540/release\n\nVideo\nID : 0\nFormat : MPEG-4 Visual\nFormat profile : Advanced Simple@L5\nFormat settings, BVOP : 2\nFormat settings, QPel : No\nFormat settings, GMC : No warppoints\nFormat settings, Matrix : Default (H.263)\nMuxing mode : Packed bitstream\nCodec ID : XVID\nCodec ID/Hint : XviD\nDuration : 1h 47mn\nBit rate : 1 714 Kbps\nWidth : 720 pixels\nHeight : 288 pixels\nDisplay aspect ratio : 2.500\nFrame rate : 25.000 fps\nColor space : YUV\nChroma subsampling : 4:2:0\nBit depth : 8 bits\nScan type : Progressive\nCompression mode : Lossy\nBits/(Pixel*Frame) : 0.331\nStream size : 1.29 GiB (93%)\nWriting library : XviD 64\n\nAudio\nID : 1\nFormat : MPEG Audio\nFormat version : Version 1\nFormat profile : Layer 3\nMode : Joint stereo\nMode extension : MS Stereo\nCodec ID : 55\nCodec ID/Hint : MP3\nDuration : 1h 47mn\nBit rate mode : Constant\nBit rate : 128 Kbps\nChannel(s) : 2 channels\nSampling rate : 44.1 KHz\nCompression mode : Lossy\nStream size : 98.3 MiB (7%)\nAlignment : Split accross interleaves\nInterleave, duration : 40 ms (1.00 video frame)\nInterleave, preload duration : 500 ms\n\n\n\n","torrent":{"xt":"urn:btih:cd90723414495d27cff2a0352b4a2ee412d4e7b2","amp;dn":"The+Conjuring+2013+READNFO+VODRiP+XViD+UNiQUE","amp;tr":["udp%3A%2F%2Ftracker.openbittorrent.com%3A80","udp%3A%2F%2Fopen.demonii.com%3A1337","udp%3A%2F%2Ftracker.coppersurfer.tk%3A6969","udp%3A%2F%2Fexodus.desync.com%3A6969"],"infoHash":"cd90723414495d27cff2a0352b4a2ee412d4e7b2","infoHashBuffer":{"type":"Buffer","data":[205,144,114,52,20,73,93,39,207,242,160,53,43,74,46,228,18,212,231,178]},"announce":[],"urlList":[]}}